<svg xmlns="http://www.w3.org/2000/svg" version="1.1" xmlns:xlink="http://www.w3.org/1999/xlink" xmlns:svgjs="http://svgjs.dev/svgjs" width="1000" height="232" viewBox="0 0 1000 232"><g transform="matrix(1,0,0,1,-0.6060489212659945,0.1354210441634791)"><svg viewBox="0 0 396 92" data-background-color="#4b91f1" preserveAspectRatio="xMidYMid meet" height="232" width="1000" xmlns="http://www.w3.org/2000/svg" xmlns:xlink="http://www.w3.org/1999/xlink"><g id="tight-bounds" transform="matrix(1,0,0,1,0.23999537282134042,-0.053697690666751896)"><svg viewBox="0 0 395.52 92.10739726027394" height="92.10739726027394" width="395.52"><g><svg viewBox="0 0 395.52 92.10739726027394" height="92.10739726027394" width="395.52"><g><svg viewBox="0 0 395.52 92.10739726027394" height="92.10739726027394" width="395.52"><g id="textblocktransform"><svg viewBox="0 0 395.52 92.10739726027394" height="92.10739726027394" width="395.52" id="textblock"><g><svg viewBox="0 0 395.52 92.10739726027394" height="92.10739726027394" width="395.52"><g transform="matrix(1,0,0,1,0,0)"><svg width="395.52" viewBox="3.8499999046325684 -37.099998474121094 160.58999633789062 37.39999771118164" height="92.10739726027394" data-palette-color="#77d4fc"><path d="M18.4 0L3.85 0 3.85-36.8 18.4-36.8Q21.75-36.8 24.05-35.58 26.35-34.35 27.78-32 29.2-29.65 29.85-26.23 30.5-22.8 30.5-18.4L30.5-18.4Q30.5-12.6 29.15-8.5 27.8-4.4 25.1-2.2 22.4 0 18.4 0L18.4 0ZM7.85-33.2L7.85-3.55 18.1-3.55Q21.05-3.55 22.9-5.38 24.75-7.2 25.65-10.53 26.55-13.85 26.55-18.4L26.55-18.4Q26.55-22.5 26.05-25.33 25.55-28.15 24.53-29.9 23.5-31.65 21.9-32.43 20.3-33.2 18.1-33.2L18.1-33.2 7.85-33.2ZM50.35 0.3L50.35 0.3Q47.25 0.3 44.75-0.25 42.25-0.8 40.47-2.13 38.7-3.45 37.75-5.73 36.8-8 36.8-11.4L36.8-11.4 36.8-36.8 40.8-36.8 40.8-11.4Q40.8-8.25 41.92-6.5 43.05-4.75 45.2-4.03 47.35-3.3 50.35-3.3L50.35-3.3Q53.35-3.3 55.5-4.03 57.65-4.75 58.77-6.5 59.9-8.25 59.9-11.4L59.9-11.4 59.9-36.8 63.9-36.8 63.9-11.4Q63.9-8 62.95-5.73 62-3.45 60.22-2.13 58.45-0.8 55.95-0.25 53.45 0.3 50.35 0.3ZM84.4 0.3L84.4 0.3Q80.84 0.3 78.17-0.38 75.5-1.05 73.72-2.95 71.95-4.85 71.07-8.55 70.2-12.25 70.2-18.25L70.2-18.25Q70.2-24.25 71.09-27.98 72-31.7 73.8-33.68 75.59-35.65 78.25-36.38 80.9-37.1 84.4-37.1L84.4-37.1Q88-37.1 90.67-36.38 93.34-35.65 95.12-33.68 96.9-31.7 97.75-27.98 98.59-24.25 98.59-18.25L98.59-18.25Q98.59-12.25 97.72-8.55 96.84-4.85 95.07-2.95 93.3-1.05 90.65-0.38 88 0.3 84.4 0.3ZM84.4-3.25L84.4-3.25Q87.2-3.25 89.15-3.8 91.09-4.35 92.32-5.93 93.55-7.5 94.09-10.45 94.65-13.4 94.65-18.25L94.65-18.25Q94.65-23.3 94.07-26.35 93.5-29.4 92.27-30.95 91.05-32.5 89.12-33 87.2-33.5 84.4-33.5L84.4-33.5Q81.8-33.5 79.87-33 77.95-32.5 76.67-30.95 75.4-29.4 74.77-26.35 74.15-23.3 74.15-18.25L74.15-18.25Q74.15-13.4 74.67-10.45 75.2-7.5 76.4-5.93 77.59-4.35 79.57-3.8 81.55-3.25 84.4-3.25ZM110.04 0L106.09 0 106.09-36.8 109.34-36.8 128.54-6.85 128.54-36.8 132.49-36.8 132.49 0 129.24 0 110.04-29.95 110.04 0ZM150.44 0.25L150.44 0.25Q146.94 0.3 144.64-0.83 142.34-1.95 141.04-4.25 139.74-6.55 139.19-10.1 138.64-13.65 138.64-18.5L138.64-18.5Q138.64-23.15 139.22-26.65 139.79-30.15 141.19-32.48 142.59-34.8 145.02-35.95 147.44-37.1 151.09-37.1L151.09-37.1Q153.04-37.1 155.14-36.95 157.24-36.8 159.24-36.5 161.24-36.2 162.94-35.8L162.94-35.8 162.94-32.8Q161.94-32.95 160.14-33.13 158.34-33.3 156.12-33.4 153.89-33.5 151.69-33.5L151.69-33.5Q148.09-33.5 146.12-32.02 144.14-30.55 143.37-27.23 142.59-23.9 142.59-18.45L142.59-18.45Q142.59-14.05 143.02-11.15 143.44-8.25 144.44-6.55 145.44-4.85 147.17-4.13 148.89-3.4 151.54-3.4L151.54-3.4Q153.89-3.4 156.39-4 158.89-4.6 160.64-5.3L160.64-5.3 160.64-16.15 151.74-16.15 151.74-19.1Q152.69-19.25 154.04-19.35 155.39-19.45 156.92-19.53 158.44-19.6 159.99-19.6L159.99-19.6Q161.29-19.6 162.44-19.58 163.59-19.55 164.44-19.4L164.44-19.4 164.44 0 161.54 0 160.94-2.6Q159.14-1.7 156.37-0.75 153.59 0.2 150.44 0.25Z" opacity="1" transform="matrix(1,0,0,1,0,0)" fill="#000000" class="undefined-text-0" data-fill-palette-color="primary" id="text-0"></path></svg></g></svg></g></svg></g></svg></g><g></g></svg></g><defs></defs></svg><rect width="395.52" height="92.10739726027394" fill="none" stroke="none" visibility="hidden"></rect></g></svg></g></svg>